<svg width="74" height="72" viewBox="0 0 74 72" fill="none" xmlns="http://www.w3.org/2000/svg">
<path d="M70.2032 45.4729V62.3744C70.2032 66.8977 66.5289 70.5715 62.005 70.5715H6.84658C4.14327 70.5715 1.68271 68.6298 1.4179 65.9489C1.10895 62.8599 3.52537 60.2562 6.54866 60.2562H24.9532C27.2924 60.2562 29.2013 58.3587 29.2013 56.0088V45.4839" stroke="#2E2D2C" stroke-width="2" stroke-linecap="round" stroke-linejoin="round"/>
<path d="M36.0312 45.4729V59.0316" stroke="#2E2D2C" stroke-width="2" stroke-linecap="round" stroke-linejoin="round"/>
<path d="M42.8722 45.4729V59.0316" stroke="#2E2D2C" stroke-width="2" stroke-linecap="round" stroke-linejoin="round"/>
<path d="M49.7023 45.4729V59.0316" stroke="#2E2D2C" stroke-width="2" stroke-linecap="round" stroke-linejoin="round"/>
<path d="M56.5322 45.4729V59.0316" stroke="#2E2D2C" stroke-width="2" stroke-linecap="round" stroke-linejoin="round"/>
<path d="M63.3622 45.4729V59.0316" stroke="#2E2D2C" stroke-width="2" stroke-linecap="round" stroke-linejoin="round"/>
<path d="M9.34023 33.3371C3.80122 35.3561 0.325555 39.7911 1.59445 43.2552C2.86335 46.7194 8.36925 47.8888 13.9083 45.8699C19.4473 43.8509 22.923 39.416 21.6541 35.9518C20.3852 32.4877 14.8792 31.3182 9.34023 33.3371Z" stroke="#2E2D2C" stroke-width="2" stroke-linecap="round" stroke-linejoin="round"/>
<path d="M70.2032 11.1953L9.34021 33.3372" stroke="#2E2D2C" stroke-width="2" stroke-linecap="round" stroke-linejoin="round"/>
<path d="M70.2584 37.4303L9.39539 15.2773" stroke="white" stroke-width="6" stroke-linecap="round" stroke-linejoin="round"/>
<path d="M70.2584 37.4303L9.39539 15.2773" stroke="#2E2D2C" stroke-width="2" stroke-linecap="round" stroke-linejoin="round"/>
<path d="M9.39529 15.2773C3.85627 13.2584 0.380608 8.82343 1.64951 5.35928C2.90737 1.89512 8.42431 0.725702 13.9633 2.74462C19.5023 4.76354 22.978 9.19852 21.7091 12.6627C20.4402 16.1268 14.9343 17.2963 9.39529 15.2773Z" stroke="#2E2D2C" stroke-width="2" stroke-linecap="round" stroke-linejoin="round"/>
</svg>
