<svg width="75" height="74" viewBox="0 0 75 74" fill="none" xmlns="http://www.w3.org/2000/svg">
<path d="M46.734 54.7322V29.9094H33.063V54.7322C33.063 58.5052 36.1194 61.5722 39.904 61.5722C43.6886 61.5722 46.745 58.5163 46.745 54.7322H46.734Z" stroke="#2E2D2C" stroke-width="2" stroke-linecap="round" stroke-linejoin="round"/>
<path d="M51.9861 3.99445C35.7442 6.7084 19.5134 9.41133 3.27148 12.1253V29.1923C19.5134 31.9063 35.7442 34.6092 51.9861 37.3231C62.7442 39.4524 71.461 31.9945 71.461 20.6643C71.461 9.3341 62.7442 1.87625 51.9861 4.00549V3.99445Z" fill="white" stroke="white" stroke-width="6" stroke-linecap="round" stroke-linejoin="round"/>
<path d="M39.8929 61.5722C39.8929 67.64 44.8141 72.5714 50.8937 72.5714C56.9734 72.5714 61.8945 67.651 61.8945 61.5722V54.4122C61.8945 48.7747 66.4626 44.2073 72.1009 44.2073" stroke="#2E2D2C" stroke-width="2" stroke-linecap="round" stroke-linejoin="round"/>
<path d="M47.5505 13.7913L42.0667 23.257" stroke="#2E2D2C" stroke-width="2" stroke-linecap="round" stroke-linejoin="round"/>
<path d="M53.7846 13.7913L48.3118 23.257" stroke="#2E2D2C" stroke-width="2" stroke-linecap="round" stroke-linejoin="round"/>
<path d="M60.0188 13.7913L54.546 23.257" stroke="#2E2D2C" stroke-width="2" stroke-linecap="round" stroke-linejoin="round"/>
<path d="M66.1647 20.6533C66.1647 27.5596 61.8173 32.3807 55.6052 32.3807C54.7667 32.3807 53.895 32.2924 53.0123 32.1159C52.9571 32.1159 52.9019 32.0939 52.8578 32.0828L44.6375 30.7148L17.5162 26.1916" stroke="#2E2D2C" stroke-width="2" stroke-linecap="round" stroke-linejoin="round"/>
<path d="M17.5162 14.2656V31.3768" stroke="white" stroke-width="6" stroke-linecap="round" stroke-linejoin="round"/>
<path d="M17.5162 14.1553V31.3767" stroke="#2E2D2C" stroke-width="2" stroke-linecap="round" stroke-linejoin="round"/>
<path d="M51.9861 3.99445C35.7442 6.7084 19.5134 9.41133 3.27148 12.1253V29.1923C19.5134 31.9063 35.7442 34.6092 51.9861 37.3231C62.7442 39.4524 71.461 31.9945 71.461 20.6643C71.461 9.3341 62.7442 1.87625 51.9861 4.00549V3.99445Z" stroke="#2E2D2C" stroke-width="2" stroke-linecap="round" stroke-linejoin="round"/>
</svg>
